<mxfile host="app.diagrams.net" agent="Mozilla/5.0 (X11; Linux x86_64) AppleWebKit/537.36 (KHTML, like Gecko) Chrome/129.0.0.0 Safari/537.36" version="24.7.17">
  <diagram name="Страница — 1" id="eMdhkQpNOUbJZczD6VvM">
    <mxGraphModel dx="943" dy="518" grid="1" gridSize="10" guides="1" tooltips="1" connect="1" arrows="1" fold="1" page="1" pageScale="1" pageWidth="827" pageHeight="1169" math="0" shadow="0">
      <root>
        <mxCell id="0" />
        <mxCell id="1" parent="0" />
        <mxCell id="xvPu-xOpBNWKDOoFSgaZ-5" value="" style="group" vertex="1" connectable="0" parent="1">
          <mxGeometry x="360" y="160" width="80" height="80" as="geometry" />
        </mxCell>
        <mxCell id="xvPu-xOpBNWKDOoFSgaZ-4" value="" style="ellipse;whiteSpace=wrap;html=1;aspect=fixed;" vertex="1" parent="xvPu-xOpBNWKDOoFSgaZ-5">
          <mxGeometry width="80" height="80" as="geometry" />
        </mxCell>
        <mxCell id="xvPu-xOpBNWKDOoFSgaZ-3" value="App" style="text;html=1;align=center;verticalAlign=middle;whiteSpace=wrap;rounded=0;" vertex="1" parent="xvPu-xOpBNWKDOoFSgaZ-5">
          <mxGeometry x="10" y="25" width="60" height="30" as="geometry" />
        </mxCell>
        <mxCell id="xvPu-xOpBNWKDOoFSgaZ-18" style="edgeStyle=orthogonalEdgeStyle;rounded=0;orthogonalLoop=1;jettySize=auto;html=1;entryX=0;entryY=0.5;entryDx=0;entryDy=0;" edge="1" parent="1" source="xvPu-xOpBNWKDOoFSgaZ-6" target="xvPu-xOpBNWKDOoFSgaZ-16">
          <mxGeometry relative="1" as="geometry" />
        </mxCell>
        <mxCell id="xvPu-xOpBNWKDOoFSgaZ-6" value="widgets" style="rounded=0;whiteSpace=wrap;html=1;" vertex="1" parent="1">
          <mxGeometry x="360" y="250" width="120" height="60" as="geometry" />
        </mxCell>
        <mxCell id="xvPu-xOpBNWKDOoFSgaZ-17" style="edgeStyle=orthogonalEdgeStyle;rounded=0;orthogonalLoop=1;jettySize=auto;html=1;exitX=1;exitY=0.5;exitDx=0;exitDy=0;" edge="1" parent="1" source="xvPu-xOpBNWKDOoFSgaZ-7" target="xvPu-xOpBNWKDOoFSgaZ-15">
          <mxGeometry relative="1" as="geometry" />
        </mxCell>
        <mxCell id="xvPu-xOpBNWKDOoFSgaZ-7" value="features" style="rounded=0;whiteSpace=wrap;html=1;" vertex="1" parent="1">
          <mxGeometry x="360" y="320" width="120" height="60" as="geometry" />
        </mxCell>
        <mxCell id="xvPu-xOpBNWKDOoFSgaZ-14" style="edgeStyle=orthogonalEdgeStyle;rounded=0;orthogonalLoop=1;jettySize=auto;html=1;exitX=1;exitY=0.5;exitDx=0;exitDy=0;entryX=0;entryY=0.5;entryDx=0;entryDy=0;" edge="1" parent="1" source="xvPu-xOpBNWKDOoFSgaZ-8" target="xvPu-xOpBNWKDOoFSgaZ-13">
          <mxGeometry relative="1" as="geometry" />
        </mxCell>
        <mxCell id="xvPu-xOpBNWKDOoFSgaZ-8" value="entities" style="rounded=0;whiteSpace=wrap;html=1;" vertex="1" parent="1">
          <mxGeometry x="360" y="420" width="120" height="60" as="geometry" />
        </mxCell>
        <mxCell id="xvPu-xOpBNWKDOoFSgaZ-10" value="shared" style="rounded=0;whiteSpace=wrap;html=1;" vertex="1" parent="1">
          <mxGeometry x="360" y="520" width="120" height="60" as="geometry" />
        </mxCell>
        <mxCell id="xvPu-xOpBNWKDOoFSgaZ-13" value="&lt;ul&gt;&lt;li&gt;budget-income&lt;/li&gt;&lt;li&gt;budget-expenditure&lt;/li&gt;&lt;li&gt;actual-expenditure&lt;/li&gt;&lt;li&gt;budget-period&lt;/li&gt;&lt;/ul&gt;" style="rounded=0;whiteSpace=wrap;html=1;align=left;" vertex="1" parent="1">
          <mxGeometry x="520" y="410" width="170" height="80" as="geometry" />
        </mxCell>
        <mxCell id="xvPu-xOpBNWKDOoFSgaZ-15" value="&lt;ul&gt;&lt;li&gt;budget-planning&lt;/li&gt;&lt;li&gt;entering-actual-expenditure&lt;/li&gt;&lt;li&gt;set-current-period&lt;/li&gt;&lt;/ul&gt;" style="rounded=0;whiteSpace=wrap;html=1;align=left;" vertex="1" parent="1">
          <mxGeometry x="520" y="320" width="200" height="60" as="geometry" />
        </mxCell>
        <mxCell id="xvPu-xOpBNWKDOoFSgaZ-16" value="&lt;ul&gt;&lt;li&gt;header&lt;/li&gt;&lt;li&gt;simple-table&lt;/li&gt;&lt;li&gt;actual-expenditure-list&lt;/li&gt;&lt;/ul&gt;" style="rounded=0;whiteSpace=wrap;html=1;align=left;" vertex="1" parent="1">
          <mxGeometry x="520" y="250" width="200" height="60" as="geometry" />
        </mxCell>
      </root>
    </mxGraphModel>
  </diagram>
</mxfile>
